<?xml version="1.0" encoding="utf-8"?>
<!-- Generator: Adobe Illustrator 16.0.2, SVG Export Plug-In . SVG Version: 6.00 Build 0)  -->
<!DOCTYPE svg PUBLIC "-//W3C//DTD SVG 1.1//EN" "http://www.w3.org/Graphics/SVG/1.1/DTD/svg11.dtd">
<svg version="1.1" id="Layer_1" xmlns="http://www.w3.org/2000/svg" xmlns:xlink="http://www.w3.org/1999/xlink" x="0px" y="0px"
	 width="200px" height="200px" viewBox="0 0 200 200" enable-background="new 0 0 200 200" xml:space="preserve">
<rect fill="#B7161C" width="200" height="200"/>
<path fill="#F3AC12" d="M1.995,0c0,0,2.791,5.761,6.148,10.352c1.199,1.638,3.711,2.075,5.05,4.531
	c1.818,3.333-1.175,4.548-1.222,6.06c-0.051,1.561,2.402,3.8,0.998,5.984c-1.644,2.558-3.082,4.819-3.992,5.984
	C4.757,38.325,0.001,41.886,0,41.886c0,0,8.03-4.971,12.015-6.981c2.254-1.138,6.034-3.333,6.983-6.981
	c0.631-2.427-1.266-5.318-1.042-6.981c0.242-1.79,1.322-3.909,1.042-5.983c-0.438-3.249-4.683-4.395-7.027-5.984
	C8.146,6.382,1.995,0,1.995,0z"/>
<path fill="#F3AC12" d="M54.867,13.213c0,0,2.792,5.762,6.148,10.353c1.199,1.638,3.712,2.074,5.051,4.531
	c1.817,3.333-1.175,4.548-1.222,6.06c-0.051,1.56,2.402,3.8,0.997,5.984c-1.644,2.557-3.081,4.819-3.991,5.984
	c-4.221,5.415-8.978,8.976-8.979,8.976c0,0,8.031-4.971,12.016-6.981c2.254-1.138,6.033-3.333,6.982-6.981
	c0.632-2.427-1.265-5.317-1.041-6.981c0.241-1.79,1.322-3.909,1.041-5.984c-0.438-3.249-4.683-4.394-7.026-5.983
	C61.018,19.597,54.867,13.213,54.867,13.213z"/>
<path fill="#F3AC12" d="M21.947,50.114c0,0,2.792,5.762,6.148,10.353c1.199,1.638,3.712,2.074,5.05,4.53
	c1.818,3.333-1.175,4.548-1.222,6.06c-0.051,1.561,2.402,3.801,0.998,5.984c-1.644,2.558-3.082,4.818-3.991,5.983
	C24.709,88.439,19.953,92,19.952,92c0,0,8.031-4.971,12.015-6.981c2.254-1.137,6.033-3.332,6.983-6.98
	c0.631-2.427-1.265-5.317-1.041-6.981c0.241-1.79,1.322-3.909,1.041-5.983c-0.438-3.249-4.683-4.395-7.027-5.983
	C28.097,56.497,21.947,50.114,21.947,50.114z"/>
<path fill="#F3AC12" d="M55.252,82c0,0,1.752,3.3,3.858,5.931c0.752,0.938,2.328,1.189,3.167,2.597
	c1.141,1.909-0.735,2.605-0.766,3.472c-0.032,0.894,1.507,2.178,0.628,3.429c-1.034,1.466-1.934,2.761-2.506,3.43
	C56.986,103.96,54.001,106,54,106c0,0,5.04-2.85,7.538-4.001c1.414-0.65,3.785-1.909,4.381-4c0.396-1.391-0.794-3.047-0.654-4
	c0.152-1.026,0.83-2.24,0.654-3.428c-0.274-1.863-2.936-2.52-4.408-3.43C59.111,85.656,55.252,82,55.252,82z"/>
<path fill="#F3AC12" d="M18.367,127.713c0,0,2.792,5.762,6.148,10.354c1.199,1.639,3.712,2.074,5.051,4.531
	c1.817,3.332-1.175,4.547-1.222,6.059c-0.051,1.561,2.402,3.801,0.997,5.984c-1.644,2.557-3.081,4.818-3.991,5.984
	c-4.221,5.415-8.978,8.976-8.979,8.976c0,0,8.031-4.971,12.016-6.981c2.254-1.138,6.033-3.333,6.982-6.981
	c0.632-2.427-1.265-5.317-1.041-6.981c0.241-1.789,1.322-3.908,1.041-5.983c-0.438-3.249-4.683-4.394-7.026-5.983
	C24.518,134.097,18.367,127.713,18.367,127.713z"/>
<path fill="#F3AC12" d="M103.252,171c0,0,1.752,3.3,3.858,5.931c0.752,0.938,2.328,1.189,3.167,2.597
	c1.141,1.909-0.735,2.605-0.766,3.472c-0.032,0.894,1.507,2.178,0.628,3.429c-1.034,1.466-1.934,2.761-2.506,3.43
	C104.986,192.96,102.001,195,102,195c0,0,5.04-2.85,7.538-4.001c1.414-0.65,3.785-1.909,4.381-4c0.396-1.391-0.794-3.047-0.654-4
	c0.152-1.026,0.83-2.24,0.654-3.428c-0.274-1.863-2.936-2.52-4.408-3.43C107.111,174.656,103.252,171,103.252,171z"/>
<path fill="#F3AC12" d="M173.252,30c0,0,1.752,3.3,3.858,5.931c0.752,0.938,2.328,1.189,3.167,2.597
	c1.141,1.909-0.735,2.605-0.766,3.472c-0.032,0.894,1.507,2.178,0.628,3.429c-1.034,1.466-1.934,2.761-2.506,3.43
	C174.986,51.96,172.001,54,172,54c0,0,5.04-2.85,7.538-4.001c1.414-0.65,3.785-1.909,4.381-4c0.396-1.391-0.794-3.047-0.654-4
	c0.152-1.026,0.83-2.24,0.654-3.428c-0.274-1.863-2.936-2.52-4.408-3.43C177.111,33.656,173.252,30,173.252,30z"/>
<path fill="#F3AC12" d="M100.867,82.213c0,0,2.792,5.762,6.148,10.354c1.199,1.639,3.712,2.074,5.051,4.531
	c1.817,3.332-1.175,4.547-1.222,6.059c-0.051,1.561,2.402,3.801,0.997,5.984c-1.644,2.557-3.081,4.818-3.991,5.984
	c-4.221,5.415-8.978,8.976-8.979,8.976c0,0,8.031-4.971,12.016-6.981c2.254-1.138,6.033-3.333,6.982-6.981
	c0.632-2.427-1.265-5.317-1.041-6.981c0.241-1.789,1.322-3.908,1.041-5.983c-0.438-3.249-4.683-4.394-7.026-5.983
	C107.018,88.597,100.867,82.213,100.867,82.213z"/>
<path fill="#F3AC12" d="M160.867,132.213c0,0,2.792,5.762,6.148,10.354c1.199,1.639,3.712,2.074,5.051,4.531
	c1.817,3.332-1.175,4.547-1.222,6.059c-0.051,1.561,2.402,3.801,0.997,5.984c-1.644,2.557-3.081,4.818-3.991,5.984
	c-4.221,5.415-8.978,8.976-8.979,8.976c0,0,8.031-4.971,12.016-6.981c2.254-1.138,6.033-3.333,6.982-6.981
	c0.632-2.427-1.265-5.317-1.041-6.981c0.241-1.789,1.322-3.908,1.041-5.983c-0.438-3.249-4.683-4.394-7.026-5.983
	C167.018,138.597,160.867,132.213,160.867,132.213z"/>
<path fill="#F3AC12" d="M140.867,4.213c0,0,2.792,5.762,6.148,10.354c1.199,1.639,3.712,2.074,5.051,4.531
	c1.817,3.332-1.175,4.547-1.222,6.059c-0.051,1.561,2.402,3.801,0.997,5.984c-1.644,2.557-3.081,4.818-3.991,5.984
	c-4.221,5.415-8.978,8.976-8.979,8.976c0,0,8.031-4.971,12.016-6.981c2.254-1.138,6.033-3.333,6.982-6.981
	c0.632-2.427-1.265-5.317-1.041-6.981c0.241-1.789,1.322-3.908,1.041-5.983c-0.438-3.249-4.683-4.394-7.026-5.983
	C147.018,10.597,140.867,4.213,140.867,4.213z"/>
</svg>
