<?xml version="1.0" encoding="utf-8"?>
<!-- Generator: Adobe Illustrator 16.0.2, SVG Export Plug-In . SVG Version: 6.00 Build 0)  -->
<!DOCTYPE svg PUBLIC "-//W3C//DTD SVG 1.1//EN" "http://www.w3.org/Graphics/SVG/1.1/DTD/svg11.dtd">
<svg version="1.1" xmlns="http://www.w3.org/2000/svg" xmlns:xlink="http://www.w3.org/1999/xlink" x="0px" y="0px" width="107px"
	 height="150.75px" viewBox="0 0 107 150.75" enable-background="new 0 0 107 150.75" xml:space="preserve">
<g id="guidlines">
</g>
<g id="Layer_1">
	<path id="hat" fill="#FFFFFF" d="M26,19.5c0,6.627,0.127,6.5-6.5,6.5h-13C-0.127,26,0,26.127,0,19.5v-13C0-0.127-0.127,0,6.5,0h13
		C26.127,0,26-0.127,26,6.5V19.5z"/>
	<ellipse id="face" fill="#F6DBB7" cx="13" cy="14" rx="10.188" ry="9.588"/>
	<path id="eye" d="M10,11.996C10,13.105,9.105,14,8,14s-2-0.895-2-2.004C6,10.895,6.895,10,8,10S10,10.895,10,11.996z"/>
	<path id="eye_1_" d="M20,12c0,1.105-0.898,2-2,2c-1.109,0-2-0.895-2-2c0-1.104,0.891-2,2-2C19.102,10,20,10.896,20,12z"/>
	<path id="bg_1_" fill="#FBD24D" d="M53,19.5c0,6.627,0.127,6.5-6.5,6.5h-13c-6.627,0-6.5,0.127-6.5-6.5v-13
		C27-0.127,26.873,0,33.5,0h13C53.126,0,53-0.127,53,6.5V19.5z"/>
	<rect id="neck" x="36" y="18.625" fill="#F7AD0D" width="8.125" height="7.375"/>
	<ellipse id="face_1_" fill="#F7AD0D" cx="40" cy="14.719" rx="10.188" ry="11.281"/>
	<path id="eye_3_" d="M37,14.996C37,16.105,36.105,17,35,17s-2-0.895-2-2.004C33,13.895,33.895,13,35,13S37,13.895,37,14.996z"/>
	<path id="eye_2_" d="M47,15c0,1.105-0.898,2-2,2c-1.109,0-2-0.895-2-2c0-1.104,0.891-2,2-2C46.102,13,47,13.896,47,15z"/>
	
		<rect id="gem" x="36" y="5.001" transform="matrix(-0.7071 0.7071 -0.7071 -0.7071 74.6499 -12.9171)" fill="#F76010" width="8.001" height="8.001"/>
	<path id="hair_2_" fill="#F7490F" d="M53,1c0,6.627,0,6.5,0,6.5V20l-2.75,6H46c0,0,2.96-7.391,3-10c0.033-2.136-4.688-4.314-6-6
		c-1.03-1.323-1.323-5-3-5s-1.97,3.677-3,5c-1.313,1.686-6.032,3.864-6,6c0.039,2.609,3,10,3,10h-4l-3-6V7.5c0,0.127,0,0.127,0-6.5
		v5.5C27-0.127,26.873,0,33.5,0h13C53.126,0,53-0.127,53,6.5V1z"/>
	<path id="bg_2_" fill="#BCDAE8" d="M26,46.5c0,6.627,0.127,6.5-6.5,6.5h-13C-0.127,53,0,53.127,0,46.5v-13
		C0,26.873-0.127,27,6.5,27h13c6.627,0,6.5-0.127,6.5,6.5V46.5z"/>
	<circle id="coin_1_" fill="#F7AD0D" cx="13" cy="41" r="10.5"/>
	<g>
		<g>
			<path fill="#F7490F" d="M12.981,46.038c-1.057,0-1.939-0.229-2.622-0.681c-0.684-0.452-1.209-1.11-1.561-1.956
				c-0.339-0.813-0.51-1.696-0.51-2.625c0-1.021,0.197-1.929,0.586-2.699c0.399-0.792,0.978-1.402,1.718-1.815
				c0.727-0.405,1.537-0.611,2.407-0.611c0.999,0,1.858,0.268,2.554,0.795c0.693,0.528,1.181,1.272,1.45,2.212l0.145,0.502
				l-2.125,0.509l-0.14-0.445c-0.174-0.557-0.419-0.959-0.727-1.195c-0.308-0.234-0.694-0.349-1.182-0.349
				c-0.583,0-1.049,0.133-1.425,0.405c-0.377,0.274-0.636,0.635-0.79,1.1c-0.169,0.51-0.254,1.044-0.254,1.586
				c0,0.708,0.101,1.327,0.298,1.842c0.182,0.476,0.452,0.816,0.825,1.044c0.391,0.238,0.801,0.354,1.255,0.354
				c0.544,0,0.988-0.151,1.358-0.464c0.368-0.313,0.625-0.801,0.763-1.449l0.108-0.511l2.169,0.558l-0.121,0.482
				c-0.274,1.089-0.781,1.938-1.507,2.523C14.921,45.739,14.022,46.038,12.981,46.038z"/>
			<path fill="#F34811" d="M12.999,36.15c0.893,0,1.643,0.231,2.252,0.693c0.607,0.463,1.031,1.113,1.271,1.951l-1.162,0.278
				c-0.207-0.66-0.508-1.142-0.9-1.442c-0.395-0.302-0.889-0.452-1.485-0.452c-0.686,0-1.258,0.167-1.719,0.501
				c-0.46,0.335-0.784,0.783-0.971,1.347s-0.28,1.145-0.28,1.743c0,0.772,0.11,1.446,0.332,2.021
				c0.221,0.576,0.565,1.007,1.031,1.291c0.467,0.285,0.972,0.428,1.515,0.428c0.661,0,1.221-0.194,1.68-0.582
				c0.457-0.388,0.768-0.964,0.93-1.728l1.182,0.304c-0.248,0.986-0.693,1.738-1.336,2.257c-0.643,0.518-1.43,0.777-2.358,0.777
				c-0.961,0-1.744-0.199-2.346-0.598c-0.603-0.398-1.061-0.976-1.375-1.731c-0.314-0.755-0.472-1.566-0.472-2.433
				c0-0.945,0.178-1.771,0.533-2.474c0.355-0.704,0.86-1.239,1.515-1.604C11.491,36.333,12.212,36.15,12.999,36.15 M12.999,35.15
				c-0.956,0-1.848,0.227-2.65,0.675c-0.829,0.462-1.476,1.145-1.921,2.027c-0.424,0.841-0.64,1.824-0.64,2.924
				c0,0.995,0.185,1.943,0.548,2.817c0.391,0.938,0.979,1.673,1.747,2.181c0.766,0.507,1.741,0.764,2.897,0.764
				c1.159,0,2.163-0.336,2.985-0.999c0.813-0.655,1.378-1.595,1.679-2.791l0.243-0.965l-0.964-0.248l-1.182-0.304l-1.011-0.26
				l-0.217,1.021c-0.114,0.538-0.315,0.933-0.598,1.173c-0.278,0.234-0.607,0.345-1.034,0.345c-0.359,0-0.684-0.092-0.994-0.281
				c-0.276-0.168-0.478-0.428-0.619-0.796c-0.176-0.458-0.265-1.017-0.265-1.663c0-0.489,0.077-0.97,0.229-1.429
				c0.12-0.362,0.319-0.642,0.61-0.853c0.287-0.208,0.657-0.31,1.13-0.31c0.374,0,0.661,0.081,0.878,0.246
				c0.221,0.17,0.412,0.497,0.554,0.947l0.279,0.891l0.908-0.217l1.162-0.278l1.016-0.243l-0.288-1.005
				c-0.3-1.046-0.847-1.877-1.626-2.471C15.07,35.452,14.109,35.15,12.999,35.15L12.999,35.15z"/>
		</g>
	</g>
	<path id="bg_3_" fill="#FFFFFF" d="M52.833,46.5c0,6.627,0.127,6.5-6.5,6.5h-13c-6.627,0-6.5,0.127-6.5-6.5v-13
		c0-6.627-0.127-6.5,6.5-6.5h13c6.627,0,6.5-0.127,6.5,6.5V46.5z"/>
	<path id="finger" fill="#F6DBB7" d="M36.275,45.382c0,1.171-0.604,2.118-1.347,2.118l0,0c-0.745,0-1.348-0.947-1.348-2.118v-4.514
		c0-1.171,0.603-2.118,1.348-2.118l0,0c0.742,0,1.347,0.947,1.347,2.118V45.382z"/>
	<path id="finger_1_" fill="#F6DBB7" d="M38.158,38.837c0,1.472-0.598,2.663-1.343,2.663l0,0c-0.742,0-1.345-1.191-1.345-2.663
		v-5.674c0-1.472,0.603-2.663,1.345-2.663l0,0c0.745,0,1.343,1.191,1.343,2.663V38.837z"/>
	<path id="finger_2_" fill="#F6DBB7" d="M40.853,39.837c0,1.472-0.603,2.663-1.348,2.663l0,0c-0.742,0-1.347-1.191-1.347-2.663
		v-8.674c0-1.472,0.604-2.663,1.347-2.663l0,0c0.745,0,1.348,1.191,1.348,2.663V39.837z"/>
	<path id="finger_3_" fill="#F6DBB7" d="M43.544,36.837c0,1.472-0.601,2.663-1.346,2.663l0,0c-0.743,0-1.346-1.191-1.346-2.663
		v-5.674c0-1.472,0.603-2.663,1.346-2.663l0,0c0.745,0,1.346,1.191,1.346,2.663V36.837z"/>
	<path id="hand_2_" fill="#F6DBB7" d="M46.55,45.123c0-3.798,0.496-6.877-2.477-6.877h-6.748c-2.975,0-2.398,3.079-2.398,6.877l0,0
		c0,3.798,3.21,4.877,6.186,4.877h0.856C44.944,50,46.55,48.921,46.55,45.123L46.55,45.123z"/>
	
		<line id="line" fill="none" stroke="#B6946A" stroke-linecap="round" stroke-miterlimit="10" x1="38.158" y1="32.25" x2="38.158" y2="39"/>
	
		<line id="line_1_" fill="none" stroke="#B6946A" stroke-linecap="round" stroke-miterlimit="10" x1="40.853" y1="32.25" x2="40.853" y2="39"/>
	
		<line id="line_2_" fill="none" stroke="#B6946A" stroke-linecap="round" stroke-miterlimit="10" x1="35.471" y1="39.25" x2="35.471" y2="43"/>
	<path id="finger_4_" fill="#F6DBB7" d="M46.237,40.837c0,1.472-0.602,2.663-1.347,2.663l0,0c-0.742,0-1.347-1.191-1.347-2.663
		v-5.674c0-1.472,0.604-2.663,1.347-2.663l0,0c0.745,0,1.347,1.191,1.347,2.663V40.837z"/>
	
		<line id="line_3_" fill="none" stroke="#B6946A" stroke-linecap="round" stroke-miterlimit="10" x1="43.544" y1="35.25" x2="43.544" y2="39"/>
	<path id="bg_4_" fill="#EDEFC2" d="M26,73.5c0,6.627,0.127,6.5-6.5,6.5h-13C-0.127,80,0,80.127,0,73.5v-13
		C0,53.874-0.127,54,6.5,54h13c6.627,0,6.5-0.127,6.5,6.5V73.5z"/>
	<polyline id="ear_2_" fill="#0A051A" points="21,64 20,59 19,55 16,55 15,62 	"/>
	<polyline id="ear_1_" fill="#0A051A" points="5,64.25 5.344,59.344 6,55 9,55 10,62 	"/>
	<path id="face_3_" fill="#0A051A" d="M25.188,70.577c0,5.85-6.729,8.336-11.267,8.287c-0.21-0.003-2.631-0.003-2.841,0
		c-3.038,0.008-10.268-2.439-10.268-8.287l0,0c0-5.851,6.875-9.732,10.267-9.576h3.841C19.219,61.238,25.188,64.727,25.188,70.577
		L25.188,70.577z"/>
	<path id="mouth" fill="#B7161C" d="M6.938,71c-0.96,0.85,0.354,3.992,1.125,5c0.76,0.992,3.547,1.881,5,2
		c1.114,0.092,4.063-0.879,5-2c0.831-0.996,1.564-4.1,1-5c-0.815-1.303-4.587,1.434-6,1.33C11.479,72.215,8.126,69.948,6.938,71z"/>
	<path id="eye_4_" fill="#FAD54F" d="M21.781,65.125c0-1.141-1.448-1.063-3.234-1.063c-1.786,0-3.234,0.924-3.234,2.063
		s1.448,2.063,3.234,2.063C20.333,68.188,21.781,66.264,21.781,65.125z"/>
	<ellipse id="eyeball_1_" fill="#B7161C" cx="18" cy="66.167" rx="1.375" ry="1.833"/>
	<path id="nose" d="M11.038,68.256c0.394-0.918,3.629-1.057,3.937-0.104c0.238,0.736-1.238,2.343-2.002,2.349
		C12.238,70.504,10.744,68.939,11.038,68.256z"/>
	<path id="eye_5_" fill="#FAD54F" d="M4.313,65.125c0-1.141,1.448-1.063,3.234-1.063c1.786,0,3.234,0.924,3.234,2.063
		s-1.448,2.063-3.234,2.063C5.761,68.188,4.313,66.264,4.313,65.125z"/>
	<ellipse id="eyeball_2_" fill="#B7161C" cx="8.094" cy="66.167" rx="1.5" ry="1.834"/>
	<polygon id="tooth" fill="#FFFFFF" points="9.021,70.813 9.188,73.188 10.063,71.333 	"/>
	<polyline id="tooth_1_" fill="#FFFFFF" points="16.021,71.333 17.063,70.813 16.896,73.188 	"/>
	<path id="bg_5_" fill="#292159" d="M80,46.5c0,6.627,0.127,6.5-6.5,6.5h-13c-6.627,0-6.5,0.127-6.5-6.5v-13
		c0-6.627-0.127-6.5,6.5-6.5h13c6.627,0,6.5-0.127,6.5,6.5V46.5z"/>
	<g id="symbol_2_">
		<path fill="none" stroke="#F34811" stroke-width="2" stroke-miterlimit="10" d="M66.904,49c0,0-0.701-1.967-0.879-1.967
			c-0.084,0-0.758-0.36-1.438-0.732c-0.709-0.39-1.424-0.792-1.479-0.812c-0.104-0.035-1.789-1.264-1.789-1.264l-0.946-3.37
			l0.983-3.054l1.438-2.843l0.455-2.739l1.932,4.88l0.635-2.948l0.49-2.914l1.156,2.563l0.598,3.299L69.43,32.5l0.424-1.264
			l1.123,4.635c0,0,0.315,2.104,0.491,2.176c0.177,0.069,0.666,1.402,0.666,1.402l0.599-0.912l-0.457,4.634l-1.687,2.353
			l-1.614,0.422l-1.511,1.368L66.904,49z"/>
		<polygon fill="none" stroke="#F34811" stroke-width="2" stroke-miterlimit="10" points="63.251,40.119 66.811,40.014 
			70.324,40.066 71.023,41.09 70.369,42.494 68.964,43.337 64.33,43.337 63.251,42.354 		"/>
		<polyline fill="none" stroke="#F34811" stroke-width="2" stroke-miterlimit="10" points="64.589,46.301 64.589,43.337 
			67.141,43.337 68.964,43.337 69.291,45.864 		"/>
		<line fill="none" stroke="#F34811" stroke-width="2" stroke-miterlimit="10" x1="66.811" y1="40.014" x2="66.811" y2="43.337"/>
	</g>
	<path id="bg_6_" display="none" fill="#BCDAE8" d="M26.167,100.5c0,6.627,0.127,6.5-6.5,6.5h-13c-6.627,0-6.5,0.127-6.5-6.5v-13
		c0-6.627-0.127-6.5,6.5-6.5h13c6.627,0,6.5-0.127,6.5,6.5V100.5z"/>
	<circle id="coin_3_" fill="#F7AD0D" cx="13.167" cy="95" r="10.5"/>
	<g>
		<g>
			<path fill="#F7490F" d="M13.148,100.038c-1.058,0-1.938-0.229-2.622-0.683c-0.684-0.45-1.209-1.108-1.561-1.955
				c-0.34-0.813-0.51-1.694-0.51-2.625c0-1.021,0.196-1.931,0.586-2.698c0.398-0.791,0.978-1.402,1.717-1.813
				c0.728-0.406,1.537-0.611,2.408-0.611c0.998,0,1.857,0.269,2.554,0.796c0.692,0.526,1.181,1.271,1.45,2.213l0.145,0.502
				L15.19,93.67l-0.141-0.445c-0.174-0.557-0.418-0.959-0.727-1.193c-0.308-0.232-0.693-0.35-1.182-0.35
				c-0.583,0-1.049,0.133-1.426,0.404c-0.377,0.273-0.635,0.635-0.789,1.1c-0.17,0.51-0.254,1.045-0.254,1.586
				c0,0.709,0.101,1.328,0.298,1.844c0.182,0.477,0.452,0.814,0.825,1.045c0.391,0.236,0.801,0.354,1.254,0.354
				c0.545,0,0.988-0.149,1.359-0.464c0.367-0.313,0.625-0.801,0.762-1.448l0.108-0.513l2.169,0.56l-0.121,0.481
				c-0.273,1.088-0.781,1.938-1.507,2.521C15.088,99.739,14.189,100.038,13.148,100.038z"/>
			<path fill="#F34811" d="M13.167,90.148c0.893,0,1.643,0.231,2.252,0.692c0.606,0.464,1.031,1.113,1.271,1.951l-1.162,0.278
				c-0.207-0.659-0.508-1.143-0.899-1.442c-0.396-0.301-0.89-0.451-1.485-0.451c-0.687,0-1.259,0.166-1.72,0.5
				c-0.459,0.337-0.783,0.783-0.971,1.349c-0.187,0.563-0.279,1.146-0.279,1.742c0,0.772,0.109,1.446,0.332,2.021
				c0.221,0.576,0.564,1.008,1.031,1.291c0.467,0.285,0.971,0.428,1.514,0.428c0.662,0,1.222-0.192,1.681-0.582
				c0.457-0.387,0.769-0.963,0.931-1.727l1.182,0.303c-0.248,0.985-0.693,1.738-1.336,2.258c-0.644,0.519-1.43,0.777-2.358,0.777
				c-0.961,0-1.744-0.199-2.347-0.601c-0.602-0.396-1.061-0.976-1.375-1.729c-0.313-0.754-0.471-1.565-0.471-2.435
				c0-0.942,0.178-1.771,0.532-2.474c0.354-0.704,0.86-1.239,1.515-1.604C11.659,90.333,12.379,90.148,13.167,90.148 M13.167,89.148
				c-0.957,0-1.849,0.229-2.65,0.677c-0.829,0.463-1.477,1.145-1.921,2.026c-0.425,0.84-0.64,1.823-0.64,2.924
				c0,0.994,0.185,1.942,0.547,2.815c0.392,0.939,0.979,1.675,1.748,2.183c0.766,0.509,1.74,0.765,2.896,0.765
				c1.159,0,2.163-0.336,2.984-0.998c0.813-0.656,1.379-1.597,1.68-2.791l0.243-0.965l-0.964-0.248l-1.182-0.306l-1.012-0.26
				l-0.217,1.021c-0.114,0.536-0.314,0.932-0.598,1.172c-0.278,0.233-0.607,0.346-1.035,0.346c-0.358,0-0.684-0.092-0.993-0.28
				c-0.276-0.168-0.478-0.429-0.619-0.797c-0.177-0.457-0.265-1.017-0.265-1.662c0-0.487,0.076-0.972,0.229-1.431
				c0.12-0.36,0.318-0.641,0.609-0.854c0.287-0.207,0.658-0.31,1.131-0.31c0.374,0,0.66,0.08,0.878,0.246
				c0.221,0.17,0.412,0.496,0.554,0.947l0.279,0.891l0.908-0.217l1.162-0.278l1.016-0.242l-0.288-1.006
				c-0.3-1.045-0.847-1.877-1.626-2.472C15.237,89.452,14.276,89.148,13.167,89.148L13.167,89.148z"/>
		</g>
	</g>
	<g>
		<defs>
			<path id="SVGID_1_" d="M53,73.5c0,6.627,0.127,6.5-6.5,6.5h-13c-6.627,0-6.5,0.127-6.5-6.5v-13c0-6.627-0.127-6.5,6.5-6.5h13
				c6.627,0,6.5-0.127,6.5,6.5V73.5z"/>
		</defs>
		<clipPath id="SVGID_2_">
			<use xlink:href="#SVGID_1_"  overflow="visible"/>
		</clipPath>
		<g id="flame_lord" clip-path="url(#SVGID_2_)">
			<path id="bg_7_" fill="#7D0922" d="M53,73.5c0,6.627,0.127,6.5-6.5,6.5h-13c-6.627,0-6.5,0.127-6.5-6.5v-13
				c0-6.627-0.127-6.5,6.5-6.5h13c6.627,0,6.5-0.127,6.5,6.5V73.5z"/>
			<ellipse fill="#360031" cx="40" cy="61.224" rx="12.353" ry="10.899"/>
			<path fill="#360031" d="M44.411,79.234c0,2.494-1.975,4.516-4.411,4.516l0,0c-2.436,0-4.411-2.021-4.411-4.516l-1.402-9.688
				c0-2.491,3.377-1.644,5.813-1.644l0,0c2.436,0,5.813-0.85,5.813,1.644L44.411,79.234z"/>
			<path fill="#DABC20" d="M36.548,63.025c0,1.078-0.671,1.953-1.499,1.953H29.75c-0.828-0.002-1.499-0.875-1.5-1.953l0,0
				c0-1.078,0.671-1.952,1.499-1.952h5.299C35.877,61.073,36.548,61.947,36.548,63.025L36.548,63.025z"/>
			<path fill="#DABC20" d="M51.415,63.025c-0.001,1.078-0.671,1.953-1.499,1.953h-5.299c-0.828-0.002-1.499-0.875-1.5-1.953l0,0
				c0-1.078,0.671-1.952,1.499-1.952h5.299C50.744,61.073,51.414,61.947,51.415,63.025L51.415,63.025z"/>
			<path fill="#BB1A25" d="M39.273,71.396c-1.441-0.475,0.375-4.408,0-5.813c-0.133-0.497-1.257-0.979-1.454-1.453
				c-0.278-0.672,0.117-2.19,0-2.907c-0.184-1.134-1.269-3.226-1.453-4.358c-0.233-1.437-1.027-4.786,0-5.813
				c1.285-1.285,5.982-1.285,7.267,0c1.027,1.027,0.233,4.379,0,5.813c-0.184,1.134-1.27,3.226-1.453,4.358
				c-0.117,0.717,0.278,2.235,0,2.907c-0.197,0.474-1.283,0.97-1.454,1.453c-0.484,1.369,0.488,4.601,0,5.813
				C40.659,71.564,39.446,71.454,39.273,71.396z"/>
			<path fill="#DBBB20" d="M42.907,77.21c0-0.802-0.551-1.453-1.231-1.453h-3.351c-0.68,0-1.231,0.651-1.231,1.453l0,0
				c0,0.804,0.551,1.453,1.231,1.453h3.351C42.355,78.663,42.907,78.014,42.907,77.21L42.907,77.21z"/>
		</g>
	</g>
	<path id="bg_8_" fill="#4CAF50" d="M107,46.5c0,6.627,0.127,6.5-6.5,6.5h-13c-6.627,0-6.5,0.127-6.5-6.5v-13
		c0-6.627-0.127-6.5,6.5-6.5h13c6.627,0,6.5-0.127,6.5,6.5V46.5z"/>
	<polygon fill="#F5D85D" points="105,30 102,30 89.25,42.125 92,45 105,33 	"/>
	
		<rect x="83.959" y="45.801" transform="matrix(-0.7072 0.707 -0.707 -0.7072 181.7576 18.7315)" fill="#3E4B53" width="6.082" height="2.404"/>
	<rect x="85.829" y="42.51" transform="matrix(-0.7071 -0.7071 0.7071 -0.7071 122.5143 138.751)" width="8.332" height="2.981"/>
	<ellipse fill="#360031" cx="40" cy="90.639" rx="7.114" ry="6.277"/>
	<path fill="#360031" d="M42.54,101.011c0,1.438-1.137,2.601-2.54,2.601l0,0c-1.403,0-2.54-1.163-2.54-2.601l-0.808-5.579
		c0-1.436,1.945-0.945,3.348-0.945l0,0c1.403,0,3.348-0.489,3.348,0.945L42.54,101.011z"/>
	<path fill="#DABC20" d="M38.013,91.677c0,0.621-0.387,1.125-0.863,1.125h-3.051c-0.477-0.001-0.863-0.504-0.863-1.125l0,0
		c0-0.62,0.386-1.124,0.863-1.124h3.051C37.626,90.553,38.012,91.057,38.013,91.677L38.013,91.677z"/>
	<path fill="#DABC20" d="M46.573,91.677c0,0.621-0.386,1.125-0.863,1.125h-3.052c-0.477-0.001-0.862-0.504-0.863-1.125l0,0
		c0-0.62,0.386-1.124,0.863-1.124h3.052C46.187,90.553,46.573,91.057,46.573,91.677L46.573,91.677z"/>
	<path fill="#BB1A25" d="M39.582,96.497c-0.83-0.272,0.216-2.538,0-3.347c-0.076-0.287-0.724-0.564-0.837-0.838
		c-0.16-0.387,0.067-1.262,0-1.674c-0.106-0.652-0.731-1.857-0.837-2.511c-0.134-0.827-0.591-2.756,0-3.348
		c0.74-0.74,3.445-0.74,4.184,0c0.592,0.592,0.135,2.521,0,3.348c-0.105,0.652-0.731,1.856-0.836,2.511
		c-0.067,0.412,0.16,1.287,0,1.674c-0.113,0.272-0.738,0.559-0.837,0.838c-0.279,0.787,0.281,2.647,0,3.347
		C40.379,96.595,39.681,96.53,39.582,96.497z"/>
	<path fill="#DBBB20" d="M41.674,99.845c0-0.462-0.317-0.837-0.709-0.837h-1.93c-0.392,0-0.709,0.375-0.709,0.837l0,0
		c0,0.464,0.317,0.837,0.709,0.837h1.93C41.356,100.682,41.674,100.309,41.674,99.845L41.674,99.845z"/>
	<path id="bg_9_" d="M80,73.5c0,6.627,0.127,6.5-6.5,6.5h-13c-6.627,0-6.5,0.127-6.5-6.5V60.501C54,53.874,53.873,54,60.5,54h13
		c6.627,0,6.5-0.126,6.5,6.501V73.5z"/>
	<path fill="#410000" d="M79.052,68.002c0-2.211-1.617-4.002-3.612-4.002H58.665c-1.996,0-3.613,1.791-3.613,4.002l0,0
		c0,2.208,1.617,3.998,3.613,3.998h16.774C77.435,72,79.052,70.21,79.052,68.002L79.052,68.002z"/>
	<path fill="#CE1006" d="M63.5,68c0,1.382-1.047,2.5-2.338,2.5h-2.324c-1.292,0-2.338-1.118-2.338-2.5l0,0
		c0-1.381,1.046-2.5,2.338-2.5h2.324C62.453,65.5,63.5,66.619,63.5,68L63.5,68z"/>
	<path fill="#CE1006" d="M77.5,68c0,1.38-1.046,2.5-2.338,2.5h-2.324c-1.292,0-2.338-1.12-2.338-2.5l0,0
		c0-1.382,1.046-2.5,2.338-2.5h2.324C76.454,65.5,77.5,66.618,77.5,68L77.5,68z"/>
	<polyline fill="none" stroke="#CE1006" stroke-width="2" stroke-linecap="round" stroke-miterlimit="10" points="68,57 
		69.291,57.625 71,60 72,58 74,60 	"/>
	
		<line display="none" fill="none" stroke="#CE1006" stroke-width="2" stroke-linecap="round" stroke-miterlimit="10" x1="70" y1="56" x2="68" y2="62"/>
</g>
<g id="hand_jake">
	<path id="bg_14_" fill="#FFFFFF" d="M79.833,100.5c0,6.627,0.127,6.5-6.5,6.5h-13c-6.627,0-6.5,0.127-6.5-6.5v-13
		c0-6.627-0.127-6.5,6.5-6.5h13c6.627,0,6.5-0.127,6.5,6.5V100.5z"/>
	<path id="finger_9_" fill="#F9C029" d="M62.979,98.382c0,1.171-0.986,2.118-2.199,2.118l0,0c-1.215,0-2.199-0.947-2.199-2.118
		v-4.514c0-1.171,0.984-2.118,2.199-2.118l0,0c1.211,0,2.199,0.947,2.199,2.118V98.382z"/>
	<path id="finger_8_" fill="#F9C029" d="M65.051,94.837c0,1.472-0.975,2.663-2.192,2.663l0,0c-1.21,0-2.193-1.191-2.193-2.663
		v-5.674c0-1.472,0.983-2.663,2.193-2.663l0,0c1.218,0,2.192,1.191,2.192,2.663V94.837z"/>
	<path id="finger_6_" fill="#F9C029" d="M68.944,92.837c0,1.472-0.979,2.663-2.196,2.663l0,0c-1.213,0-2.197-1.191-2.197-2.663
		v-5.674c0-1.472,0.984-2.663,2.197-2.663l0,0c1.217,0,2.196,1.191,2.196,2.663V92.837z"/>
	<path id="hand_1_" fill="#F9C029" d="M73.488,99.123c0-3.798,0.585-6.877-2.927-6.877h-7.971c-3.516,0-2.834,3.079-2.834,6.877l0,0
		c0,3.798,3.793,4.877,7.31,4.877h1.011C71.591,104,73.488,102.921,73.488,99.123L73.488,99.123z"/>
	<line id="line_7_" fill="#F9C029" stroke="#B58315" stroke-miterlimit="10" x1="65" y1="88" x2="65" y2="94"/>
	<path id="line_9_" fill="#F9C029" stroke="#B58315" stroke-miterlimit="10" d="M69.449,93"/>
	<path id="line_8_" fill="#F9C029" stroke="#B58315" stroke-miterlimit="10" d="M69.449,86.25"/>
	<line id="line_5_" fill="#F9C029" stroke="#B58315" stroke-miterlimit="10" x1="61.665" y1="93.25" x2="61.665" y2="97"/>
	<path id="finger_5_" fill="#F9C029" d="M73.338,94.837c0,1.472-0.981,2.663-2.195,2.663l0,0c-1.212,0-2.2-1.191-2.2-2.663v-5.674
		c0-1.472,0.985-2.663,2.2-2.663l0,0c1.214,0,2.195,1.191,2.195,2.663V94.837z"/>
	<line id="line_4_" fill="#F9C029" stroke="#B58315" stroke-miterlimit="10" x1="69.449" y1="88" x2="69.449" y2="94"/>
</g>
<g id="hand_cinnamon">
	<path id="bg_16_" fill="#FFFFFF" d="M107,127.5c0,6.627,0.127,6.5-6.5,6.5h-13c-6.627,0-6.5,0.127-6.5-6.5v-13
		c0-6.627-0.127-6.5,6.5-6.5h13c6.627,0,6.5-0.127,6.5,6.5V127.5z"/>
	<path id="finger_15_" fill="#2863BA" d="M90.146,125.382c0,1.171-0.986,2.118-2.199,2.118l0,0c-1.215,0-2.199-0.947-2.199-2.118
		v-4.514c0-1.171,0.984-2.118,2.199-2.118l0,0c1.211,0,2.199,0.947,2.199,2.118V125.382z"/>
	<path id="finger_14_" fill="#2863BA" d="M92.218,121.837c0,1.472-0.975,2.663-2.192,2.663l0,0c-1.21,0-2.193-1.191-2.193-2.663
		v-5.674c0-1.472,0.983-2.663,2.193-2.663l0,0c1.218,0,2.192,1.191,2.192,2.663V121.837z"/>
	<path id="finger_13_" fill="#2863BA" d="M96.111,119.837c0,1.472-0.979,2.663-2.196,2.663l0,0c-1.213,0-2.197-1.191-2.197-2.663
		v-5.674c0-1.472,0.984-2.663,2.197-2.663l0,0c1.217,0,2.196,1.191,2.196,2.663V119.837z"/>
	<path id="hand_4_" fill="#2863BA" d="M100.655,126.123c0-3.798,0.585-6.877-2.927-6.877h-7.971c-3.516,0-2.834,3.079-2.834,6.877
		l0,0c0,3.798,3.793,4.877,7.31,4.877h1.011C98.758,131,100.655,129.921,100.655,126.123L100.655,126.123z"/>
	<line id="line_15_" fill="#F9C029" stroke="#123B6D" stroke-miterlimit="10" x1="92.167" y1="115" x2="92.167" y2="121"/>
	<path id="line_14_" fill="#F9C029" stroke="#B58315" stroke-miterlimit="10" d="M96.616,120"/>
	<path id="line_12_" fill="#F9C029" stroke="#B58315" stroke-miterlimit="10" d="M96.616,113.25"/>
	<line id="line_11_" fill="#F9C029" stroke="#123B6D" stroke-miterlimit="10" x1="88.832" y1="120.25" x2="88.832" y2="124"/>
	<path id="finger_12_" fill="#2863BA" d="M100.505,121.837c0,1.472-0.981,2.663-2.195,2.663l0,0c-1.212,0-2.2-1.191-2.2-2.663
		v-5.674c0-1.472,0.985-2.663,2.2-2.663l0,0c1.214,0,2.195,1.191,2.195,2.663V121.837z"/>
	<line id="line_10_" fill="#F9C029" stroke="#123B6D" stroke-miterlimit="10" x1="96.616" y1="115" x2="96.616" y2="121"/>
</g>
<g id="hand_bmo">
	<path id="bg_15_" fill="#FFFFFF" d="M107,100.5c0,6.627,0.127,6.5-6.5,6.5h-13c-6.627,0-6.5,0.127-6.5-6.5v-13
		c0-6.627-0.127-6.5,6.5-6.5h13c6.627,0,6.5-0.127,6.5,6.5V100.5z"/>
	<path id="finger_11_" fill="#25AD9F" d="M92.218,94.837c0,1.472-0.975,2.663-2.192,2.663l0,0c-1.21,0-2.193-1.191-2.193-2.663
		v-5.674c0-1.472,0.983-2.663,2.193-2.663l0,0c1.218,0,2.192,1.191,2.192,2.663V94.837z"/>
	<path id="finger_10_" fill="#25AD9F" d="M96.111,92.837c0,1.472-0.979,2.663-2.196,2.663l0,0c-1.213,0-2.197-1.191-2.197-2.663
		v-5.674c0-1.472,0.984-2.663,2.197-2.663l0,0c1.217,0,2.196,1.191,2.196,2.663V92.837z"/>
	<path id="hand_3_" fill="#25AD9F" d="M100.658,99.123c0-3.798,0.545-6.877-2.729-6.877h-7.434c-3.278,0-2.643,3.079-2.643,6.877
		l0,0c0,3.798,3.537,4.877,6.816,4.877h0.942C98.889,104,100.658,102.921,100.658,99.123L100.658,99.123z"/>
	<line id="line_13_" fill="none" stroke="#1B776C" stroke-miterlimit="10" x1="92.167" y1="88" x2="92.167" y2="94"/>
	<path id="finger_7_" fill="#25AD9F" d="M100.505,94.837c0,1.472-0.981,2.663-2.195,2.663l0,0c-1.212,0-2.2-1.191-2.2-2.663v-5.674
		c0-1.472,0.985-2.663,2.2-2.663l0,0c1.214,0,2.195,1.191,2.195,2.663V94.837z"/>
	<line id="line_6_" fill="none" stroke="#1B776C" stroke-miterlimit="10" x1="96.616" y1="88" x2="96.616" y2="94"/>
</g>
<g id="jake">
	<path id="bg_10_" fill="#F9C029" d="M80,19.5c0,6.627,0.127,6.5-6.5,6.5h-13c-6.627,0-6.5,0.127-6.5-6.5v-13
		C54-0.127,53.873,0,60.5,0h13C80.127,0,80-0.127,80,6.5V19.5z"/>
	<circle id="eye_6_" fill="#010101" cx="61" cy="12.141" r="4.5"/>
	<circle id="eyeball" fill="#FFFFFF" cx="61" cy="12" r="3.5"/>
	<circle id="eye_7_" fill="#010101" cx="73" cy="12" r="4.5"/>
	<circle id="eyeball_3_" fill="#FFFFFF" cx="73" cy="11.859" r="3.5"/>
	<path id="nose_1_" fill="#F9C029" stroke="#000000" stroke-miterlimit="10" d="M62.303,20.994
		c-0.722,0.006-1.891-0.221-2.301-0.849c-0.242-0.368-0.573-1.279-0.488-1.718c0.484-2.497,1.486-6.412,7.707-6.412
		c6.717,0,7.342,7.029,7.269,7.383C74.313,20.256,72.825,20.892,72,21c-0.775,0.103-1.988-0.096-2.36-0.823
		c-0.499-0.979,0.391-3.405,0-4.445c-0.247-0.658-1.692-1.456-2.395-1.474c-0.717-0.018-2.244,0.713-2.517,1.376
		c-0.412,1.005,0.449,3.371,0,4.348C64.392,20.715,63.074,20.988,62.303,20.994z"/>
	<ellipse id="nose_2_" fill="#010101" cx="67" cy="15" rx="2.5" ry="2"/>
	<path fill="none" stroke="#000000" stroke-miterlimit="10" d="M64.749,17.871c0,0,1.635,1.113,2.251,1.129
		c0.699,0.019,2.613-1.129,2.613-1.129"/>
</g>
<g id="cinnamon_buns">
	<path id="bg_11_" fill="#2863BA" d="M107,19.5c0,6.627,0.127,6.5-6.5,6.5h-13c-6.627,0-6.5,0.127-6.5-6.5v-13
		C81-0.127,80.873,0,87.5,0h13c6.627,0,6.5-0.127,6.5,6.5V19.5z"/>
	<g>
		<defs>
			<circle id="eye_9_" cx="88" cy="13" r="3"/>
		</defs>
		<clipPath id="eye_12_">
			<use xlink:href="#eye_9_"  overflow="visible"/>
		</clipPath>
		<circle id="eye_10_" clip-path="url(#eye_12_)" cx="88" cy="13" r="3"/>
		<circle clip-path="url(#eye_12_)" fill="#FFFFFF" cx="86" cy="11" r="2"/>
		<circle clip-path="url(#eye_12_)" fill="#FFFFFF" cx="90" cy="15" r="2"/>
	</g>
	<g>
		<defs>
			<circle id="eye_11_" cx="100" cy="13" r="3"/>
		</defs>
		<clipPath id="eye_13_">
			<use xlink:href="#eye_11_"  overflow="visible"/>
		</clipPath>
		<circle id="eye_8_" clip-path="url(#eye_13_)" cx="100" cy="13" r="3"/>
		<circle clip-path="url(#eye_13_)" fill="#FFFFFF" cx="102" cy="11" r="2"/>
		<circle clip-path="url(#eye_13_)" fill="#FFFFFF" cx="98" cy="15" r="2"/>
	</g>
</g>
<g id="bmo">
	<path id="bg_12_" fill="#25AD9F" d="M107,73.5c0,6.627,0.127,6.5-6.5,6.5h-13c-6.627,0-6.5,0.127-6.5-6.5v-13
		c0-6.627-0.127-6.5,6.5-6.5h13c6.627,0,6.5-0.127,6.5,6.5V73.5z"/>
	<path id="bg_13_" fill="#B9DFCA" d="M104,73.5c0,4.588,0.098,4.5-5,4.5H89c-5.098,0-5,0.088-5-4.5v-9c0-4.588-0.098-4.5,5-4.5h10
		c5.098,0,5-0.088,5,4.5V73.5z"/>
	<circle cx="89" cy="67" r="2"/>
	<circle cx="99" cy="67" r="2"/>
</g>
<g id="arr">
	<polyline fill="none" stroke="#000000" stroke-width="4" stroke-linecap="round" stroke-miterlimit="10" points="3,112 13,122 
		23,112 	"/>
</g>
<g id="sound">
	<rect x="32" y="118" width="6" height="10"/>
	<polygon points="42.5,133 37.5,128 37.5,118 42.5,113 	"/>
	<rect x="42.5" y="113" width="2.5" height="20"/>
	<path fill="none" stroke="#000000" stroke-width="2" stroke-linecap="round" stroke-miterlimit="10" d="M47,118c0,0,2,0.75,2,5
		c0,4.313-2,5-2,5"/>
	<path fill="none" stroke="#000000" stroke-width="2" stroke-linecap="round" stroke-miterlimit="10" d="M51,115c0,0,3,3.75,3,8
		c0,4.313-3,8-3,8"/>
</g>
</svg>
